<svg width="28" height="26" viewBox="0 0 28 26" fill="none" xmlns="http://www.w3.org/2000/svg">
<path d="M25.0039 1C25.0039 1 25.0039 4.14719 25.0039 13.5888C25.0039 15.4004 23.8012 16.8516 21.9343 17.9119C21.8327 17.9697 21.7525 18.0595 21.7095 18.1682L19.2707 24.3264C19.1418 24.6518 18.7272 24.7475 18.4688 24.5117L13.6553 20.1194C13.5583 20.0309 13.4303 19.9843 13.299 19.9883C7.2023 20.1737 1.00391 18.1585 1.00391 13.5888C1.00391 6.49516 1.00391 2.75916 1.00391 1.49785C1.00391 1.22171 1.22776 1 1.50391 1H18.5039" stroke="#EA6646" stroke-width="2"/>
<circle cx="7.50391" cy="9.5" r="1.5" fill="#EA6646"/>
<circle cx="12.5039" cy="9.5" r="1.5" fill="#EA6646"/>
<circle cx="17.5039" cy="9.5" r="1.5" fill="#EA6646"/>
</svg>
