<svg width="28" height="24" viewBox="0 0 28 24" fill="none" xmlns="http://www.w3.org/2000/svg">
<path d="M17 17.5C17 17.5 17 14.3765 17 6.56764C17 2.66322 13.75 0.906237 10.5 1.00385M4 5.44599C4 1.93201 7.25 1.10146 10.5 1.00385M10.5 1.00385C10.5 1.00385 16.5947 1.00385 20.5 1.00385C23.75 0.906238 27 2.66323 27 6.56764L27 17C27 17.2761 26.7761 17.5 26.5 17.5L19.5 17.5M19.5 17.5L19.5 22.5C19.5 22.7761 19.2761 23 19 23L15 23C14.7239 23 14.5 22.7761 14.5 22.5L14.5 17.5M19.5 17.5L14.5 17.5M14.5 17.5C14.5 17.5 8.59873 17.5 4.49889 17.5C4.22275 17.5 4 17.2761 4 17L4 13.62M13 9.03689L13 11C13 13.8693 7.55438 14.6124 4 13.62M1 6.03689L0.999999 11C0.999999 12.251 2.27807 13.1392 4 13.62M1 6.03689L1 5.44599M1 6.03689L6.75631 9.39474C6.90756 9.48297 7.09395 9.48565 7.24767 9.4018L12.7786 6.38493C13.2333 6.13689 13.0572 5.44598 12.5392 5.44598L5.625 5.44599L1 5.44599M1 5.44599L1 5.03689M1 5.44599L-3.72728e-07 5.44599" stroke="#495B7D" stroke-width="2"/>
</svg>
